<?xml version="1.0" encoding="UTF-8"?>
<svg id="Layer_1" xmlns="http://www.w3.org/2000/svg" version="1.1" viewBox="0 0 93.23 60.29">
  <!-- Generator: Adobe Illustrator 29.2.1, SVG Export Plug-In . SVG Version: 2.1.0 Build 116)  -->
  <defs>
    <style>
      .st0 {
        isolation: isolate;
      }

      .st1 {
        fill: #d4a499;
      }

      .st2 {
        fill: #9c836a;
      }
    </style>
  </defs>
  <g class="st0">
    <g class="st0">
      <path class="st2" d="M3.54,12.66v-5.8h-1.21v-.22c2.03,0,3.67-.75,3.95-2.8h.22v2.8h2.14v.22h-2.14v6.23c0,2.44.3,3.15,1.58,3.3l-.04.19c-2.29-.19-4.51-.71-4.51-3.92Z"/>
      <path class="st2" d="M9.73,2.4l2.96-.52v14.56h-2.96V2.4ZM16.42,8.48c0-1.19-.43-1.72-1.32-1.72s-2.41.84-2.41,2.83l-.22.02c0-2.2,1.72-3.34,3.51-3.34,1.68,0,3.39.65,3.39,3.49v6.68h-2.95v-7.96Z"/>
      <path class="st2" d="M20.64,11.57c0-3.24,2.46-5.3,5.31-5.3,3.15.02,4.25,2.09,3.75,3.41h-7.23v-.22h3.58c.88,0,1.23-.35,1.23-1.29,0-.86-.35-1.68-1.32-1.68-1.62,0-2.27,2.2-2.27,4.64,0,3.28,1.45,4.75,3.34,4.75,1.16,0,2.42-.71,2.8-2.61l.22.04c-.41,2.07-2.03,3.24-4.53,3.24s-4.87-1.79-4.87-5Z"/>
    </g>
  </g>
  <g class="st0">
    <g class="st0">
      <path class="st2" d="M57.3,51.1c0-3.25,2.46-5.3,5.31-5.3,3.15.02,4.25,2.09,3.75,3.41h-7.23v-.22h3.58c.88,0,1.23-.35,1.23-1.29,0-.86-.35-1.68-1.32-1.68-1.62,0-2.28,2.2-2.28,4.64,0,3.28,1.45,4.75,3.34,4.75,1.16,0,2.42-.71,2.8-2.61l.22.04c-.41,2.07-2.03,3.25-4.53,3.25s-4.87-1.79-4.87-5Z"/>
      <path class="st2" d="M67.2,51.08c0-3.19,2.27-5.24,4.77-5.24,1.64,0,3.09.9,3.09,3.41h-.22c0-1.86-.86-2.98-2.12-2.98-1.57,0-2.48,1.77-2.48,4.89,0,2.05.47,4.49,2.33,4.49,1.08,0,2.27-1.14,2.27-3.38l.22-.02c0,2.93-1.83,3.86-3.3,3.86-2.29,0-4.57-1.77-4.57-5.04ZM74.84,41.93l2.96-.52v14.56h-2.96v-14.04Z"/>
      <path class="st2" d="M79.93,43.4c0-.9.69-1.57,1.64-1.57.88,0,1.57.67,1.57,1.57s-.69,1.58-1.57,1.58c-.95,0-1.64-.69-1.64-1.58ZM80.04,46.4l2.98-.52v10.09h-2.98v-9.57Z"/>
      <path class="st2" d="M85.54,52.18v-5.8h-1.21v-.22c2.03,0,3.67-.75,3.95-2.8h.22v2.8h2.14v.22h-2.14v6.23c0,2.44.3,3.15,1.58,3.3l-.04.19c-2.29-.19-4.51-.71-4.51-3.92Z"/>
    </g>
  </g>
  <g class="st0">
    <g class="st0">
      <path class="st1" d="M8.69,43.65l-.03-.28c1.47-1.56,2.23-2.08,3.85-9.44,1.04-4.62,2.26-10.21,3.15-14.75h2.14c.67,4.1,1.53,7.46,2.66,11.8,2.02,7.88,3.42,12.05,4.73,12.39l-.03.28h-7.82l-.03-.28c1.4-1.35.61-4.93-.03-7.92-1.22,0-4.49,1.01-4.92,3.16-.43,2.57-.37,3.82.73,4.76l-.03.28h-4.37ZM12.7,36.85c.67-1.53,2.9-2.53,4.28-2.71l-1.89-7.78-2.38,10.48Z"/>
      <path class="st1" d="M37.87,36.22c-.03,4.62-2.57,7.85-5.93,7.85-4.06,0-6.72-2.99-6.66-7.6l.03-2.92c.09-9.58-.7-12.74-1.86-13.92l.03-.28h6.81l.03.35c-1.53,1.94-1.41,4.79-1.5,13.71l-.03,3.44c-.03,3.26,1.65,5.55,3.94,5.55s4.18-2.46,4.18-6.04v-3.54c0-10.14-.7-11.35-2.2-13.12l.03-.35h5.04l.03.35c-1.28,1.98-1.83,3.37-1.92,12.81l-.03,3.71Z"/>
      <path class="st1" d="M52.04,38.97c.76.04,1.65-.49,2.08-1.32,1.77,1.15,1.74,6.42-1.44,6.42-2.93,0-3.73-6.21-5.38-9.75-.21-.45-.7-1.08-1.07-1.42-.06,4.86.21,9.27,1.8,10.48l-.06.28h-7.27v-.28c2.08-1.56,1.83-8.33,1.83-12.12s-.09-10.66-1.83-11.63l.03-.28,6.6-.03c5.41-.07,7.91,3.3,7.94,7.81.03,5.66-2.9,7.15-5.56,7.22-.49,0-.98-.03-1.44-.17.79,1.7,1.86,4.72,3.76,4.79ZM51.21,26.89c-.06-3.47-1.41-6.6-4.98-6.6v8.57c0,3.12.92,4.2,1.99,4.24,1.41.07,3.08-2.05,2.99-6.21Z"/>
      <path class="st1" d="M55.15,43.65l-.03-.28c1.47-1.56,2.23-2.08,3.85-9.44,1.04-4.62,2.26-10.21,3.15-14.75h2.14c.67,4.1,1.53,7.46,2.66,11.8,2.02,7.88,3.42,12.05,4.73,12.39l-.03.28h-7.82l-.03-.28c1.41-1.35.61-4.93-.03-7.92-1.22,0-4.49,1.01-4.92,3.16-.43,2.57-.37,3.82.73,4.76l-.03.28h-4.37ZM59.15,36.85c.67-1.53,2.9-2.53,4.28-2.71l-1.89-7.78-2.38,10.48Z"/>
    </g>
  </g>
</svg>