<?xml version="1.0" encoding="UTF-8"?>
<svg id="Layer_1" xmlns="http://www.w3.org/2000/svg" version="1.1" viewBox="0 0 211 92">
  <!-- Generator: Adobe Illustrator 29.1.0, SVG Export Plug-In . SVG Version: 2.1.0 Build 142)  -->
  <defs>
    <style>
      .st0 {
        fill: none;
      }

      .st0, .st1, .st2 {
        stroke: #b2627b;
        stroke-miterlimit: 10;
        stroke-width: 2px;
      }

      .st1, .st3 {
        fill: #b2627b;
      }

      .st2 {
        fill: #fff;
      }
    </style>
  </defs>
  <g>
    <path class="st3" d="M51.23,45.34c-.87,5.48-1.2,8.89-1.14,14.37-4.14-.13-8.22-.2-16.3-.2s-10.62.07-15.7.2v-5.75l6.61-5.55c10.49-8.69,13.23-14.3,13.23-22.12,0-5.35-1.87-8.22-6.21-8.49h-.67l-1.34,7.88c-.47,2.81-1.2,4.21-4.61,4.41l-6.61.33c-.47-8.15,6.88-14.1,16.17-14.1s15.03,5.95,15.03,12.76c0,8.69-6.41,14.03-18.58,18.78l-7.95,3.47h21.05c3.14,0,3.47-.6,5.81-6.01h1.2Z"/>
    <path class="st3" d="M89.65,45.34c-.87,5.48-1.2,8.89-1.14,14.37-4.14-.13-8.22-.2-16.3-.2s-10.62.07-15.7.2v-5.75l6.61-5.55c10.49-8.69,13.23-14.3,13.23-22.12,0-5.35-1.87-8.22-6.21-8.49h-.67l-1.34,7.88c-.47,2.81-1.2,4.21-4.61,4.41l-6.61.33c-.47-8.15,6.88-14.1,16.17-14.1s15.03,5.95,15.03,12.76c0,8.69-6.41,14.03-18.58,18.78l-7.95,3.47h21.05c3.14,0,3.47-.6,5.81-6.01h1.2Z"/>
    <path class="st3" d="M128.06,45.34c-.87,5.48-1.2,8.89-1.14,14.37-4.14-.13-8.22-.2-16.3-.2s-10.62.07-15.7.2v-5.75l6.61-5.55c10.49-8.69,13.23-14.3,13.23-22.12,0-5.35-1.87-8.22-6.21-8.49h-.67l-1.34,7.88c-.47,2.81-1.2,4.21-4.61,4.41l-6.61.33c-.47-8.15,6.88-14.1,16.17-14.1s15.03,5.95,15.03,12.76c0,8.69-6.41,14.03-18.58,18.78l-7.95,3.47h21.05c3.14,0,3.47-.6,5.81-6.01h1.2Z"/>
  </g>
  <g>
    <path class="st3" d="M10.28,74.13c0,5.3,2.05,7.75,5.74,7.75,1.13,0,2.41-.26,3.73-.88l.18.22c-1.43,2.23-4.31,3.36-6.91,3.36-5.26,0-8.56-3.18-8.56-8.88,0-6.33,4.2-10.02,9.21-10.02,3.73,0,6.51,2.01,6.47,6.54l-1.75.22c-2.01.26-2.52-.18-2.85-1.57l-.99-4.39h-.11c-2.92,0-4.17,3.36-4.17,7.64Z"/>
    <path class="st3" d="M21.87,75.15c0-5.37,3.8-9.47,9.51-9.47s9.1,4.17,9.1,9.18c0,6.25-4.2,9.72-9.51,9.72-4.75,0-9.1-3.11-9.1-9.43ZM34.3,74.83c0-5.59-.91-8.19-2.89-8.19-2.12,0-3.36,2.78-3.36,8.59,0,6.4,1.06,8.45,2.92,8.45,2.16,0,3.33-2.96,3.33-8.85Z"/>
    <path class="st3" d="M69.11,63.27l-1.24.22c-.55.07-.91.11-1.28.11-1.35,0-1.75-.58-2.16-2.12l-.77-3.14c-1.9.26-2.49.99-2.67,3.91-.04.8-.04,3.33-.04,4.9h3.91v2.34h-3.91c0,1.86-.04,4.09-.04,5.3,0,1.94.07,5.59.11,6.54.04,1.46.15,1.68,1.46,2.05l.58.18v.58c-1.5-.07-3.58-.11-5.01-.11s-2.85.04-4.57.11v-.58l.44-.11c.91-.22,1.1-.58,1.21-2.08.11-1.54.18-7.35.18-8.88v-3h-5.3v4.79c0,1.39,0,5.85.07,7.17.07,1.39.22,1.72,1.21,2.01l.44.11v.58c-1.39-.07-2.85-.11-4.39-.11-1.72,0-3.47.04-5.05.11v-.58l.48-.11c1.17-.33,1.32-.55,1.43-2.12.11-1.5.18-7.31.18-8.85v-2.08c0-.8-.18-.84-1.06-1.06l-1.35-.33v-.48l2.41-1.5v-1.35c0-5.3,3.95-7.2,8.59-7.2,1.75,0,3.4.22,5.01.62,1.39-.91,3.22-1.39,5.34-1.39,3.62,0,5.59,1.86,5.78,5.56ZM55.32,67.15v-2.96c0-1.86.69-3.36,1.86-4.46-.84-.11-1.57-.18-2.23-.18-3.11,0-4.72,1.32-4.9,5.01-.04.99-.04,1.75-.04,2.6h5.3Z"/>
    <path class="st3" d="M82.01,73.73h-10.49v.18c0,5.52,2.01,7.97,5.85,7.97,1.21,0,2.6-.26,4.24-.99l.15.29c-1.54,2.05-4.02,3.4-7.31,3.4-5.67,0-8.74-3.22-8.74-8.85,0-6.54,4.2-10.05,8.92-10.05s7.39,2.52,7.39,7.17v.88ZM71.52,72.96l5.19-.4c0-4.86-.58-6-2.08-6-1.79,0-2.96,2.08-3.11,6.4Z"/>
    <path class="st3" d="M100.29,73.73h-10.49v.18c0,5.52,2.01,7.97,5.85,7.97,1.21,0,2.6-.26,4.24-.99l.15.29c-1.54,2.05-4.02,3.4-7.31,3.4-5.67,0-8.74-3.22-8.74-8.85,0-6.54,4.2-10.05,8.92-10.05s7.39,2.52,7.39,7.17v.88ZM89.8,72.96l5.19-.4c0-4.86-.58-6-2.08-6-1.79,0-2.96,2.08-3.11,6.4Z"/>
    <path class="st3" d="M128.77,83.56v.58c-1.57-.11-3-.15-4.46-.15-1.61,0-3.18.04-4.94.15v-.58l.58-.15c1.1-.26,1.28-.51,1.32-2.23v-2.41c0-1.28-.04-3.8-.11-5.45-.11-3-.44-4.35-2.92-4.35-.8,0-1.65.26-2.34.66v.48c0,5.19.04,9.83.07,10.82.07,2.01.07,2.19,1.39,2.52l.37.11v.58c-1.54-.11-3.14-.15-4.72-.15s-3.22.04-4.83.15v-.58l.37-.11c1.21-.33,1.46-.55,1.54-2.08.07-1.65.18-6.8.18-10.49,0-3.11,0-6.32-.07-8.41-.04-1.35-.26-1.65-1.57-2.12l-.4-.18v-.48c2.71-.55,4.72-1.06,7.53-1.97l.37.26c-.15,3.84-.18,8.19-.22,11,1.46-2.01,3.22-3.29,5.67-3.29,3.66,0,5.23,2.3,5.3,5.89.04,3.11.07,7.57.11,9.25.04,2.08.26,2.23,1.32,2.6l.48.15Z"/>
    <path class="st3" d="M130.23,75.15c0-5.37,3.8-9.47,9.51-9.47s9.1,4.17,9.1,9.18c0,6.25-4.21,9.72-9.51,9.72-4.75,0-9.1-3.11-9.1-9.43ZM142.66,74.83c0-5.59-.91-8.19-2.89-8.19-2.12,0-3.36,2.78-3.36,8.59,0,6.4,1.06,8.45,2.93,8.45,2.16,0,3.33-2.96,3.33-8.85Z"/>
    <path class="st3" d="M170.89,82.83v.51c-2.56.37-4.53.73-6.76,1.35l-.48-.15-.37-3.33c-1.28,2.27-3.55,3.36-5.7,3.36-3.51,0-5.23-2.16-5.34-5.48-.07-2.96.04-8.37.04-9.54,0-1.24-.18-1.43-1.17-1.68l-.7-.22v-.48c2.96-.48,4.9-.84,7.35-1.35l.37.18c-.15,3.25-.33,8.59-.26,10.97.07,3.07.58,4.42,2.81,4.42.73,0,1.72-.11,2.56-.73,0-1.97.04-10.24,0-11.22s-.26-1.21-1.32-1.54l-.69-.26v-.48c3.07-.4,4.94-.88,7.53-1.35l.37.18c-.15,3.07-.26,7.46-.26,12.21v2.67c0,1.13.07,1.39,1.28,1.72l.73.22Z"/>
    <path class="st3" d="M173.55,83.71c-.11-2.01-.22-3.51-.48-5.37h.58c2.23,3.36,4.02,5.34,5.92,5.34s3-1.06,3-2.92c0-1.68-1.13-2.34-4.17-3.22-3.22-.91-5.34-2.16-5.34-5.52,0-3.8,3.25-6.32,7.6-6.32,1.94,0,3.8.33,5.41.88,0,1.39.07,2.89.22,4.53h-.62c-2.08-3.25-3.29-4.46-5.12-4.46-1.54,0-3.11.91-3.11,2.89,0,1.54.91,1.97,3.36,2.74,4.57,1.43,6.47,2.67,6.47,5.92,0,3.95-3.29,6.4-7.75,6.4-2.19,0-4.68-.4-6-.88Z"/>
    <path class="st3" d="M205.84,73.73h-10.49v.18c0,5.52,2.01,7.97,5.85,7.97,1.21,0,2.6-.26,4.24-.99l.15.29c-1.54,2.05-4.02,3.4-7.31,3.4-5.67,0-8.74-3.22-8.74-8.85,0-6.54,4.2-10.05,8.92-10.05s7.38,2.52,7.38,7.17v.88ZM195.34,72.96l5.19-.4c0-4.86-.58-6-2.08-6-1.79,0-2.96,2.08-3.11,6.4Z"/>
  </g>
  <path class="st1" d="M186.26,28.16l-48.97.75c-3.77,14.31-2.26,23.36,1.51,28.63,3.77,5.27,38.42,7.53,46.71-.75,7.4-7.4.75-28.63.75-28.63Z"/>
  <ellipse class="st2" cx="161.58" cy="29.48" rx="25.43" ry="6.97"/>
  <path class="st0" d="M153.16,30.08s-7.09-6.54-2.69-10.34,6.44-4.7,4.66-9.12-3.07-4.22-3.07-4.22"/>
  <path class="st0" d="M162.2,30.08s-7.09-6.54-2.69-10.34,6.44-4.7,4.66-9.12-3.07-4.22-3.07-4.22"/>
  <path class="st0" d="M171.24,30.08s-7.09-6.54-2.69-10.34,6.44-4.7,4.66-9.12-3.07-4.22-3.07-4.22"/>
</svg>